<svg width="426" height="16" viewBox="0 0 426 16" fill="none" xmlns="http://www.w3.org/2000/svg">
<circle cx="8" cy="8" r="8" fill="#0E9540"/>
<circle cx="8" cy="8" r="7.5" stroke="black" stroke-opacity="0.08"/>
<circle cx="90" cy="8" r="8" fill="#D9D9D9"/>
<circle cx="90" cy="8" r="7.5" stroke="black" stroke-opacity="0.08"/>
<circle cx="172" cy="8" r="8" fill="#D9D9D9"/>
<circle cx="172" cy="8" r="7.5" stroke="black" stroke-opacity="0.08"/>
<circle cx="254" cy="8" r="8" fill="#D9D9D9"/>
<circle cx="254" cy="8" r="7.5" stroke="black" stroke-opacity="0.08"/>
<circle cx="336" cy="8" r="8" fill="#D9D9D9"/>
<circle cx="336" cy="8" r="7.5" stroke="black" stroke-opacity="0.08"/>
<circle cx="418" cy="8" r="8" fill="#D9D9D9"/>
<circle cx="418" cy="8" r="7.5" stroke="black" stroke-opacity="0.08"/>
<rect x="15" y="6" width="68" height="3" fill="#0E9540"/>
<rect x="15.5" y="6.5" width="67" height="2" stroke="black" stroke-opacity="0.08"/>
<rect x="97" y="6" width="68" height="3" fill="#D9D9D9"/>
<rect x="97.5" y="6.5" width="67" height="2" stroke="black" stroke-opacity="0.08"/>
<rect x="179" y="6" width="68" height="3" fill="#D9D9D9"/>
<rect x="179.5" y="6.5" width="67" height="2" stroke="black" stroke-opacity="0.08"/>
<rect x="261" y="6" width="68" height="3" fill="#D9D9D9"/>
<rect x="261.5" y="6.5" width="67" height="2" stroke="black" stroke-opacity="0.08"/>
<rect x="343" y="6" width="68" height="3" fill="#D9D9D9"/>
<rect x="343.5" y="6.5" width="67" height="2" stroke="black" stroke-opacity="0.08"/>
</svg>
